<svg width="36" height="34" viewBox="0 0 36 34" fill="none" xmlns="http://www.w3.org/2000/svg">
<rect width="36" height="33.846" rx="16.923" fill="#E3D8D1"/>
<path fill-rule="evenodd" clip-rule="evenodd" d="M23.3521 15.2399C24.218 15.2399 25.0644 15.4967 25.7843 15.9778C26.5043 16.4588 27.0654 17.1425 27.3968 17.9425C27.7281 18.7425 27.8148 19.6227 27.6459 20.472C27.477 21.3212 27.06 22.1013 26.4477 22.7135C25.8355 23.3258 25.0554 23.7427 24.2062 23.9117C23.3569 24.0806 22.4767 23.9939 21.6767 23.6625C20.8768 23.3312 20.193 22.7701 19.712 22.0501C19.2309 21.3302 18.9742 20.4837 18.9742 19.6179C18.9742 18.4568 19.4354 17.3432 20.2564 16.5222C21.0774 15.7012 22.191 15.2399 23.3521 15.2399ZM18.6598 11.1861L17.9237 11.9581L17.1875 11.2366C15.9806 10.0477 15.0686 9.15189 13.1939 9.12745L12.961 9.13886C11.9537 9.15842 10.987 9.54 10.2379 10.2138C9.8698 10.56 9.57702 10.9782 9.37779 11.4426C9.17855 11.9069 9.07713 12.4073 9.07986 12.9125V13.1357C9.19224 16.2742 12.1955 19.012 14.6858 21.2791C15.1744 21.7172 15.6272 22.1375 16.0686 22.5625L17.9041 24.3297L18.8667 23.3736C18.9774 23.5039 19.0931 23.631 19.2136 23.7515C19.3471 23.8867 19.4888 24.0137 19.6354 24.1359L17.9106 25.846L15.3291 23.3443C14.9236 22.9551 14.4545 22.53 13.9659 22.0821C11.3177 19.6732 8.13196 16.7693 8.00003 13.1731V12.8995C7.99758 12.2477 8.12951 11.6023 8.3876 11.0038C8.64569 10.4052 9.02439 9.86629 9.50006 9.42062C10.4385 8.56761 11.6525 8.08082 12.9203 8.04926H13.2118C15.492 8.07858 16.5425 9.08185 17.9025 10.419C19.0198 9.22681 19.953 8.25122 21.8439 8.03297C22.9081 7.91612 23.9833 8.11135 24.9384 8.59487C25.7421 8.99605 26.4401 9.58078 26.9759 10.3017C27.5189 11.0241 27.8616 11.8769 27.9694 12.7741C28.0731 13.7123 27.9118 14.6608 27.5036 15.5119L27.4759 15.4826C27.2189 15.2255 26.9387 14.9927 26.6388 14.7872C26.877 14.1877 26.9647 13.5391 26.8945 12.8979C26.8083 12.1887 26.537 11.5146 26.1078 10.9434C25.673 10.3593 25.1074 9.88519 24.4563 9.55906C23.6893 9.17216 22.8266 9.01602 21.9726 9.10954C20.4546 9.28381 19.6452 10.1438 18.6598 11.1861ZM22.7055 17.7709C22.7056 17.6864 22.7227 17.6027 22.756 17.525V17.5152C22.7879 17.4404 22.8338 17.3725 22.8912 17.3149C23.0117 17.1953 23.1742 17.1275 23.3439 17.126C23.4282 17.1271 23.5116 17.1436 23.5899 17.1748C23.6681 17.2079 23.7393 17.2554 23.8 17.3149C23.8596 17.3744 23.9067 17.4453 23.9384 17.5234V17.5348C23.972 17.6093 23.9918 17.6893 23.997 17.7709V19.0739H25.2886C25.373 19.0741 25.4565 19.0907 25.5345 19.1227C25.6132 19.1551 25.6846 19.2027 25.7446 19.2628C25.8038 19.3227 25.8508 19.3935 25.8831 19.4713V19.4811C25.9114 19.5527 25.9269 19.6288 25.9287 19.7058V19.7254C25.9277 19.806 25.9111 19.8856 25.8798 19.9599C25.8473 20.0384 25.7997 20.1098 25.7397 20.17C25.6807 20.2294 25.6103 20.2765 25.5329 20.3084H25.5215C25.4471 20.337 25.3683 20.3524 25.2886 20.354H23.9856V21.6456C23.9854 21.73 23.9688 21.8135 23.9368 21.8915C23.9038 21.9698 23.8563 22.0411 23.7967 22.1016L23.7837 22.113C23.727 22.1671 23.6607 22.2102 23.5882 22.2401H23.5768C23.5025 22.2688 23.4236 22.2842 23.3439 22.2857C23.2596 22.2855 23.1761 22.2689 23.098 22.2368C23.0194 22.2045 22.948 22.1569 22.8879 22.0967C22.828 22.0381 22.7808 21.9677 22.7495 21.8899C22.7173 21.8124 22.7001 21.7295 22.699 21.6456V20.3605H21.4156C21.331 20.3605 21.2474 20.3433 21.1696 20.3101H21.1599C21.0851 20.2782 21.0171 20.2323 20.9595 20.1749C20.8999 20.1153 20.8528 20.0444 20.8211 19.9664V19.955C20.7912 19.8819 20.7742 19.8042 20.7706 19.7254C20.7699 19.6409 20.7866 19.5572 20.8195 19.4794C20.8667 19.3608 20.9481 19.2589 21.0533 19.1867C21.1586 19.1144 21.283 19.0752 21.4107 19.0739H22.7136V17.7709H22.7055Z" fill="#644D40"/>
</svg>
